<svg width="24" height="25" viewBox="0 0 24 25" fill="none" xmlns="http://www.w3.org/2000/svg">
<path fill-rule="evenodd" clip-rule="evenodd" d="M13.1429 1.77652C13.1429 1.14535 12.6312 0.633667 12 0.633667C11.3688 0.633667 10.8571 1.14535 10.8571 1.77652V11.4908H1.14286C0.51168 11.4908 0 12.0025 0 12.6337C0 13.2648 0.51168 13.7765 1.14286 13.7765H10.8571V23.4908C10.8571 24.1219 11.3688 24.6337 12 24.6337C12.6312 24.6337 13.1429 24.1219 13.1429 23.4908V13.7765H22.8571C23.4882 13.7765 24 13.2648 24 12.6337C24 12.0025 23.4882 11.4908 22.8571 11.4908H13.1429V1.77652Z" fill="#2F265F"/>
</svg>
